<?xml version="1.0" encoding="utf-8"?>
<!-- Generator: Adobe Illustrator 23.0.3, SVG Export Plug-In . SVG Version: 6.00 Build 0)  -->
<svg version="1.1" id="Layer_1" xmlns="http://www.w3.org/2000/svg" xmlns:xlink="http://www.w3.org/1999/xlink" x="0px" y="0px"
	 viewBox="0 0 80.9 104.6" style="enable-background:new 0 0 80.9 104.6;" xml:space="preserve">
<style type="text/css">
	.st0{fill:#58D130;}
	.st1{fill:#16699E;}
	.st2{fill:#EA3B29;}
	.st3{fill:#fece16;}
	.st4{fill:#000000f2;}
	.st5{fill:none;stroke:#000000f2;stroke-width:5;stroke-linecap:round;stroke-linejoin:round;stroke-miterlimit:10;}
</style>
<title>Artboard 1</title>
<g>
	<ellipse transform="matrix(0.7267 -0.687 0.687 0.7267 -25.388 42.5408)" class="st0" cx="40.8" cy="53.2" rx="42.3" ry="30.4"/>
	<path class="st1" d="M60.2,76.5c-16.8,14.9-39,17.6-50.2,5.7C-0.2,71.5,2,52.4,14.3,37.1L60.2,76.5z"/>
	<circle class="st2" cx="36.5" cy="48.8" r="35.3"/>
	<circle class="st3" cx="45" cy="56.3" r="35.3"/>
	<path class="st4" d="M40.6,15.9c-20.2,0-36.5,16.3-36.5,36.5s16.3,36.5,36.5,36.5c20.2,0,36.5-16.3,36.5-36.5S60.7,15.9,40.6,15.9z
		 M40.6,83.6c-17.2,0-31.2-14-31.2-31.2s14-31.2,31.2-31.2c17.2,0,31.2,14,31.2,31.2S57.8,83.6,40.6,83.6z"/>
	<circle class="st4" cx="40.6" cy="46.8" r="3"/>
	<circle class="st4" cx="40" cy="35.6" r="1.9"/>
	<circle class="st4" cx="34.6" cy="40.6" r="1.9"/>
	<path class="st5" d="M45.3,25.4c0,0,8.1,0.9,14.8,7.8"/>
	<path class="st4" d="M27.3,61.4c-0.9,0.3-1.3,1.4-0.8,2.3c3.9,8,12.9,12.1,21,9.2c8.1-2.9,12.4-11.9,10.2-20.5
		c-0.2-1-1.2-1.5-2.1-1.2L27.3,61.4z M46.4,70.1c-6,2.2-12.7-0.3-16.3-5.7c-0.3-0.4-0.1-0.9,0.3-1l24-8.7c0.4-0.1,0.8,0.2,0.9,0.6
		C56,61.7,52.5,67.9,46.4,70.1z"/>
</g>
</svg>
