<?xml version="1.0" encoding="utf-8"?>
<!-- Generator: Adobe Illustrator 23.0.3, SVG Export Plug-In . SVG Version: 6.00 Build 0)  -->
<svg version="1.1" id="Layer_1" xmlns="http://www.w3.org/2000/svg" xmlns:xlink="http://www.w3.org/1999/xlink" x="0px" y="0px"
	 viewBox="0 0 327.9 104.6" style="enable-background:new 0 0 327.9 104.6;" xml:space="preserve">
<style type="text/css">
	.st0{fill:#58D130;}
	.st1{fill:#16699E;}
	.st2{fill:#EA3B29;}
	.st3{fill:#fece16;}
	.st4{fill:#000000f2;}
	.st5{fill:none;stroke:#000000f2;stroke-width:5;stroke-linecap:round;stroke-linejoin:round;stroke-miterlimit:10;}
</style>
<title>logo-black</title>
<ellipse transform="matrix(0.7267 -0.687 0.687 0.7267 -21.8937 51.1814)" class="st0" cx="53.4" cy="53.1" rx="54.2" ry="39"/>
<path class="st1" d="M78.3,83.1c-21.6,19.2-50,22.5-64.4,7.3c-13-13.8-10.2-38.3,5.6-58L78.3,83.1z"/>
<circle class="st2" cx="47.9" cy="47.5" r="45.4"/>
<circle class="st3" cx="58.8" cy="57.1" r="45.4"/>
<path class="st4" d="M53.2,5.3c-25.9,0-46.8,21-46.8,46.8S27.3,99,53.2,99C79,99,100,78,100,52.2S79,5.3,53.2,5.3z M53.2,92.2
	c-22.1,0-40-17.9-40-40s17.9-40,40-40c22.1,0,40,17.9,40,40S75.3,92.2,53.2,92.2z"/>
<circle class="st4" cx="53.2" cy="44.9" r="3.9"/>
<circle class="st4" cx="52.4" cy="30.6" r="2.4"/>
<circle class="st4" cx="45.4" cy="37" r="2.4"/>
<path class="st5" d="M59.2,17.5c0,0,10.3,1.2,19.1,10"/>
<g>
	<path d="M115.3,71.5V35.3c0-2.1,1.2-3.3,3.3-3.3h6.5c6.7,0,10,3.7,10,10.5v4.2c0,6.8-3.3,10.5-10,10.5h-3.2v14.3
		c0,2.1-1.2,3.3-3.3,3.3S115.3,73.7,115.3,71.5z M125.1,51.1c2.1,0,3.3-1,3.3-4v-5c0-3-1.2-4-3.3-4h-3.2v13.1H125.1z"/>
	<path d="M138.7,71.2V35.3c0-1.9,1.4-3.3,3.3-3.3h12.2c1.8,0,3,1.3,3,3s-1.3,3-3,3h-8.9v11.2h6.5c1.8,0,3,1.3,3,3c0,1.8-1.3,3-3,3
		h-6.5v13.1h8.9c1.8,0,3,1.3,3,3c0,1.8-1.3,3-3,3H142C140.1,74.5,138.7,73.1,138.7,71.2z"/>
	<path d="M160.8,71.2V35.3c0-1.9,1.4-3.3,3.3-3.3h12.2c1.8,0,3,1.3,3,3s-1.3,3-3,3h-8.9v11.2h6.5c1.8,0,3,1.3,3,3c0,1.8-1.3,3-3,3
		h-6.5v13.1h8.9c1.8,0,3,1.3,3,3c0,1.8-1.3,3-3,3h-12.2C162.1,74.5,160.8,73.1,160.8,71.2z"/>
	<path d="M182.8,71.5V35c0-1.9,1.4-3.3,3.3-3.3c1.9,0,3.3,1.4,3.3,3.3v14.9l8-16.3c0.5-1,1.2-2,2.9-2c1.8,0,2.9,1.2,2.9,2.8
		c0,0.6-0.2,1.2-0.5,1.8l-6.1,11.4l6.9,22.2c0.2,0.7,0.3,1.3,0.3,1.9c0,2.2-1.6,3.2-3.2,3.2c-1.8,0-2.8-1-3.5-3.1l-5.1-16.2
		l-2.7,5.4v10.6c0,1.9-1.4,3.3-3.3,3.3C184.2,74.9,182.8,73.5,182.8,71.5z"/>
	<path d="M206.5,71.6c0-0.4,0.1-0.7,0.1-1.1l5.8-34.6c0.5-2.8,2.4-4.6,5.2-4.6c2.8,0,4.7,1.8,5.2,4.6l5.8,34.6
		c0.1,0.4,0.1,0.7,0.1,1c0,2.1-1.1,3.4-3,3.4c-2,0-3.2-1.3-3.5-3.2l-0.8-5.6v0.1h-8l-0.8,5.6c-0.3,2.1-1.5,3.1-3.2,3.1
		C207.9,74.9,206.5,73.8,206.5,71.6z M220.6,60.4l-3.2-21.6h-0.1l-3.1,21.6H220.6z"/>
	<path d="M232.3,71.5V35.3c0-1.9,1.4-3.3,3.3-3.3h11.7c1.8,0,3,1.3,3,3s-1.3,3-3,3H239v11.8h6c1.8,0,3,1.3,3,3c0,1.8-1.3,3-3,3h-6
		v15.6c0,1.9-1.4,3.3-3.3,3.3C233.7,74.9,232.3,73.5,232.3,71.5z"/>
	<path d="M252.7,64.4V42.1c0-6.8,3.6-10.7,10.1-10.7c6.6,0,10.1,3.9,10.1,10.7v22.4c0,6.8-3.6,10.7-10.1,10.7
		C256.3,75.1,252.7,71.2,252.7,64.4z M266.3,64.9V41.6c0-3-1.3-4.2-3.5-4.2c-2.1,0-3.5,1.2-3.5,4.2v23.2c0,3,1.3,4.2,3.5,4.2
		C265,69,266.3,67.9,266.3,64.9z"/>
	<path d="M277,64.4V42.1c0-6.8,3.6-10.7,10.1-10.7c6.6,0,10.1,3.9,10.1,10.7v22.4c0,6.8-3.6,10.7-10.1,10.7
		C280.6,75.1,277,71.2,277,64.4z M290.6,64.9V41.6c0-3-1.3-4.2-3.5-4.2c-2.1,0-3.5,1.2-3.5,4.2v23.2c0,3,1.3,4.2,3.5,4.2
		C289.3,69,290.6,67.9,290.6,64.9z"/>
	<path d="M301.8,71.2V35.3c0-1.9,1.4-3.3,3.3-3.3h6.9c6.7,0,10,3.7,10,10.5V64c0,6.8-3.3,10.5-10,10.5h-6.9
		C303.2,74.5,301.8,73.1,301.8,71.2z M311.9,68.4c2.1,0,3.4-1.1,3.4-4.1V42.2c0-3-1.3-4.1-3.4-4.1h-3.4v30.4H311.9z"/>
</g>
<path class="st4" d="M36.1,63.7c-1.1,0.4-1.6,1.8-1.1,2.9C40,77,51.6,82.2,62,78.4c10.4-3.8,15.9-15.3,13.1-26.3
	c-0.3-1.2-1.6-2-2.7-1.5L36.1,63.7z M60.7,74.8c-7.7,2.8-16.3-0.4-20.9-7.3c-0.3-0.5-0.1-1.1,0.4-1.3L70.9,55
	c0.5-0.2,1.1,0.2,1.1,0.8C72.9,64,68.4,72,60.7,74.8z"/>
</svg>
