<?xml version="1.0" encoding="utf-8"?>
<!-- Generator: Adobe Illustrator 23.0.3, SVG Export Plug-In . SVG Version: 6.00 Build 0)  -->
<svg version="1.1" id="Layer_1" xmlns="http://www.w3.org/2000/svg" xmlns:xlink="http://www.w3.org/1999/xlink" x="0px" y="0px"
	 viewBox="0 0 327.9 104.6" style="enable-background:new 0 0 327.9 104.6;" xml:space="preserve">
<style type="text/css">
	.st0{fill:#58D130;}
	.st1{fill:#16699E;}
	.st2{fill:#EA3B29;}
	.st3{fill:#fece16;}
	.st4{fill:#000000f2;}
	.st5{fill:none;stroke:#000000f2;stroke-width:5;stroke-linecap:round;stroke-linejoin:round;stroke-miterlimit:10;}
	.st6{fill:#FFFFFF;}
</style>
<title>logo-white</title>
<ellipse transform="matrix(0.7267 -0.687 0.687 0.7267 -22.2717 50.2313)" class="st0" cx="52" cy="53.1" rx="54.2" ry="39"/>
<path class="st1" d="M76.9,83.1c-21.6,19.2-50,22.5-64.4,7.3c-13-13.8-10.2-38.3,5.6-58L76.9,83.1z"/>
<circle class="st2" cx="46.5" cy="47.5" r="45.4"/>
<circle class="st3" cx="57.4" cy="57.1" r="45.4"/>
<path class="st4" d="M51.8,5.3c-25.9,0-46.8,21-46.8,46.8S25.9,99,51.8,99s46.8-21,46.8-46.8S77.6,5.3,51.8,5.3z M51.8,92.2
	c-22.1,0-40-17.9-40-40s17.9-40,40-40s40,17.9,40,40S73.9,92.2,51.8,92.2z"/>
<circle class="st4" cx="51.8" cy="44.9" r="3.9"/>
<circle class="st4" cx="51" cy="30.6" r="2.4"/>
<circle class="st4" cx="44" cy="37" r="2.4"/>
<path class="st5" d="M57.8,17.5c0,0,10.3,1.2,19.1,10"/>
<g>
	<path class="st6" d="M113.9,71.5V35.3c0-2.1,1.2-3.3,3.3-3.3h6.5c6.7,0,10,3.7,10,10.5v4.2c0,6.8-3.3,10.5-10,10.5h-3.2v14.3
		c0,2.1-1.2,3.3-3.3,3.3S113.9,73.7,113.9,71.5z M123.7,51.1c2.1,0,3.3-1,3.3-4v-5c0-3-1.2-4-3.3-4h-3.2v13.1H123.7z"/>
	<path class="st6" d="M137.3,71.2V35.3c0-1.9,1.4-3.3,3.3-3.3h12.2c1.8,0,3,1.3,3,3s-1.3,3-3,3H144v11.2h6.5c1.8,0,3,1.3,3,3
		c0,1.8-1.3,3-3,3H144v13.1h8.9c1.8,0,3,1.3,3,3c0,1.8-1.3,3-3,3h-12.2C138.7,74.5,137.3,73.1,137.3,71.2z"/>
	<path class="st6" d="M159.4,71.2V35.3c0-1.9,1.4-3.3,3.3-3.3h12.2c1.8,0,3,1.3,3,3s-1.3,3-3,3h-8.9v11.2h6.5c1.8,0,3,1.3,3,3
		c0,1.8-1.3,3-3,3h-6.5v13.1h8.9c1.8,0,3,1.3,3,3c0,1.8-1.3,3-3,3h-12.2C160.8,74.5,159.4,73.1,159.4,71.2z"/>
	<path class="st6" d="M181.4,71.5V35c0-1.9,1.4-3.3,3.3-3.3c1.9,0,3.3,1.4,3.3,3.3v14.9l8-16.3c0.5-1,1.2-2,2.9-2
		c1.8,0,2.9,1.2,2.9,2.8c0,0.6-0.2,1.2-0.5,1.8l-6.1,11.4l6.9,22.2c0.2,0.7,0.3,1.3,0.3,1.9c0,2.2-1.6,3.2-3.2,3.2
		c-1.8,0-2.8-1-3.5-3.1l-5.1-16.2l-2.7,5.4v10.6c0,1.9-1.4,3.3-3.3,3.3C182.8,74.9,181.4,73.5,181.4,71.5z"/>
	<path class="st6" d="M205.2,71.6c0-0.4,0.1-0.7,0.1-1.1l5.8-34.6c0.5-2.8,2.4-4.6,5.2-4.6c2.8,0,4.7,1.8,5.2,4.6l5.8,34.6
		c0.1,0.4,0.1,0.7,0.1,1c0,2.1-1.1,3.4-3,3.4c-2,0-3.2-1.3-3.5-3.2l-0.8-5.6v0.1h-8l-0.8,5.6c-0.3,2.1-1.5,3.1-3.2,3.1
		C206.5,74.9,205.2,73.8,205.2,71.6z M219.2,60.4L216,38.8h-0.1l-3.1,21.6H219.2z"/>
	<path class="st6" d="M230.9,71.5V35.3c0-1.9,1.4-3.3,3.3-3.3h11.7c1.8,0,3,1.3,3,3s-1.3,3-3,3h-8.3v11.8h6c1.8,0,3,1.3,3,3
		c0,1.8-1.3,3-3,3h-6v15.6c0,1.9-1.4,3.3-3.3,3.3C232.3,74.9,230.9,73.5,230.9,71.5z"/>
	<path class="st6" d="M251.3,64.4V42.1c0-6.8,3.6-10.7,10.1-10.7s10.1,3.9,10.1,10.7v22.4c0,6.8-3.6,10.7-10.1,10.7
		S251.3,71.2,251.3,64.4z M264.9,64.9V41.6c0-3-1.3-4.2-3.5-4.2c-2.1,0-3.5,1.2-3.5,4.2v23.2c0,3,1.3,4.2,3.5,4.2
		C263.6,69,264.9,67.9,264.9,64.9z"/>
	<path class="st6" d="M275.6,64.4V42.1c0-6.8,3.6-10.7,10.1-10.7s10.1,3.9,10.1,10.7v22.4c0,6.8-3.6,10.7-10.1,10.7
		S275.6,71.2,275.6,64.4z M289.2,64.9V41.6c0-3-1.3-4.2-3.5-4.2c-2.1,0-3.5,1.2-3.5,4.2v23.2c0,3,1.3,4.2,3.5,4.2
		C287.9,69,289.2,67.9,289.2,64.9z"/>
	<path class="st6" d="M300.4,71.2V35.3c0-1.9,1.4-3.3,3.3-3.3h6.9c6.7,0,10,3.7,10,10.5V64c0,6.8-3.3,10.5-10,10.5h-6.9
		C301.8,74.5,300.4,73.1,300.4,71.2z M310.5,68.4c2.1,0,3.4-1.1,3.4-4.1V42.2c0-3-1.3-4.1-3.4-4.1h-3.4v30.4H310.5z"/>
</g>
<path class="st4" d="M34.7,63.7c-1.1,0.4-1.6,1.8-1.1,2.9c5,10.3,16.6,15.6,27,11.8C71,74.6,76.5,63.2,73.7,52.1
	c-0.3-1.2-1.6-2-2.7-1.5L34.7,63.7z M59.3,74.8c-7.7,2.8-16.3-0.4-20.9-7.3c-0.3-0.5-0.1-1.1,0.4-1.3L69.5,55
	c0.5-0.2,1.1,0.2,1.1,0.8C71.5,64,67,72,59.3,74.8z"/>
</svg>
